<svg xmlns="http://www.w3.org/2000/svg" viewBox="0 0 450 130" shape-rendering="crispEdges">
  <g fill="#000000">
    <g transform="translate(40, 40)">
      <rect x="0" y="0" width="30" height="10"/>
      <rect x="0" y="10" width="10" height="30"/>
      <rect x="0" y="40" width="30" height="10"/>
    </g>

    <g transform="translate(80, 40)">
      <rect x="0" y="0" width="30" height="10"/>
      <rect x="0" y="10" width="10" height="40"/>
      <rect x="20" y="10" width="10" height="40"/>
      <rect x="0" y="25" width="30" height="10"/>
    </g>

    <g transform="translate(120, 40)">
      <rect x="0" y="0" width="30" height="10"/>
      <rect x="0" y="10" width="10" height="15"/>
      <rect x="0" y="20" width="30" height="10"/>
      <rect x="20" y="25" width="10" height="15"/>
      <rect x="0" y="40" width="30" height="10"/>
    </g>

    <g transform="translate(160, 40)">
      <rect x="0" y="0" width="10" height="50"/>
      <rect x="20" y="0" width="10" height="50"/>
      <rect x="0" y="20" width="30" height="10"/>
    </g>

    <g transform="translate(200, 40)">
      <rect x="0" y="0" width="30" height="10"/>
      <rect x="0" y="10" width="10" height="30"/>
      <rect x="0" y="20" width="25" height="10"/>
      <rect x="0" y="40" width="30" height="10"/>
    </g>

    <g transform="translate(240, 40)">
      <rect x="0" y="0" width="10" height="50"/>
      <rect x="40" y="0" width="10" height="50"/>
      <rect x="20" y="20" width="10" height="30"/>
      <rect x="10" y="40" width="30" height="10"/>
    </g>

    <g transform="translate(300, 40)">
      <rect x="0" y="0" width="30" height="10"/>
      <rect x="0" y="10" width="10" height="40"/>
      <rect x="20" y="10" width="10" height="40"/>
    </g>

    <g transform="translate(340, 40)">
      <rect x="0" y="0" width="10" height="40"/>
      <rect x="20" y="0" width="10" height="40"/>
      <rect x="0" y="40" width="30" height="10"/>
    </g>

    <g transform="translate(380, 40)">
      <rect x="0" y="0" width="30" height="10"/>
      <rect x="10" y="10" width="10" height="40"/>
    </g>
  </g>
</svg>